<?xml version="1.0" standalone="no"?>
<!DOCTYPE svg PUBLIC "-//W3C//DTD SVG 20010904//EN"
 "http://www.w3.org/TR/2001/REC-SVG-20010904/DTD/svg10.dtd">
<svg version="1.0" xmlns="http://www.w3.org/2000/svg"
 width="1024.000000pt" height="10.000000pt" viewBox="0 0 1024.000000 10.000000"
 preserveAspectRatio="xMidYMid meet">

<g transform="translate(0.000000,10.000000) scale(0.100000,-0.100000)"
fill="#000000" stroke="none">
<path d="M295 90 c-3 -5 -1 -10 4 -10 6 0 11 5 11 10 0 6 -2 10 -4 10 -3 0 -8
-4 -11 -10z"/>
<path d="M329 78 c-19 -11 -35 -22 -37 -23 -2 -2 2 -13 8 -25 13 -25 22 -21
24 12 1 14 8 24 21 26 25 5 40 18 28 25 -5 3 -25 -3 -44 -15z"/>
<path d="M9871 78 c-1 -24 3 -28 27 -27 22 1 23 2 5 6 -13 2 -24 13 -26 26 -4
18 -5 17 -6 -5z"/>
<path d="M9924 88 c-2 -3 -1 -13 2 -22 7 -17 44 -22 44 -6 0 5 -7 7 -15 4 -8
-4 -15 -1 -15 5 0 6 9 11 20 11 11 0 20 4 20 9 0 10 -50 10 -56 -1z"/>
<path d="M10000 80 c-22 -16 -23 -20 -8 -25 29 -11 45 -2 39 22 -6 22 -6 22
-31 3z m20 -10 c0 -5 -5 -10 -11 -10 -5 0 -7 5 -4 10 3 6 8 10 11 10 2 0 4 -4
4 -10z"/>
<path d="M10052 75 c0 -16 2 -22 5 -12 2 9 2 23 0 30 -3 6 -5 -1 -5 -18z"/>
<path d="M10082 75 c0 -16 2 -22 5 -12 2 9 2 23 0 30 -3 6 -5 -1 -5 -18z"/>
<path d="M10100 79 c0 -24 27 -36 43 -20 9 9 8 11 -4 6 -10 -4 -20 -2 -24 4
-3 7 2 11 14 11 30 0 26 15 -4 16 -19 2 -25 -3 -25 -17z"/>
<path d="M10170 75 c0 -14 4 -25 9 -25 4 0 6 11 3 25 -6 32 -12 32 -12 0z"/>
<path d="M469 45 c-13 -34 -14 -45 -4 -45 7 0 16 12 19 28 4 15 9 35 12 45 12
38 -12 14 -27 -28z"/>
</g>
</svg>
